# xmcd
#
# Track frame offsets:
#	150
#	13810
#	29134
#	40948
#	53437
#	65585
#	77552
#	91267
#	104725
#	120370
#	136140
#	147132
#
# Disc length: 2140 seconds
#
# Revision: 0
# Processed by: cddbd v1.5.1PL2 Copyright (c) Steve Scherf et al.
# Submitted via: EasyCDDAExtractor 8.2.3.1
#
DISCID=9d085a0c
DTITLE=Jacó e Jacózinho - Terra Bruta
DYEAR=1972
DGENRE=Sertanejo
TTITLE0=Empreitada perigosa
TTITLE1=Motorista de caminhão
TTITLE2=Pé quente
TTITLE3=Plante que o governo garante
TTITLE4=Queria sonhar outra vez
TTITLE5=Rosa na roseira
TTITLE6=Terra bruta
TTITLE7=A rodada
TTITLE8=Eu, ela e o cavalo
TTITLE9=Caboclinha
TTITLE10=É gostoso
TTITLE11=Pai de 12 filhos
EXTD=
EXTT0=
EXTT1=
EXTT2=
EXTT3=
EXTT4=
EXTT5=
EXTT6=
EXTT7=
EXTT8=
EXTT9=
EXTT10=
EXTT11=
PLAYORDER=
